<svg width="197" height="58" viewBox="0 0 197 58" fill="none" xmlns="http://www.w3.org/2000/svg">
<rect x="1" y="1" width="195" height="56" stroke="black" stroke-width="2"/>
<path d="M25.3 40.21C23.84 40.21 22.52 39.96 21.34 39.46C20.18 38.96 19.26 38.24 18.58 37.3C17.9 36.36 17.55 35.25 17.53 33.97H22.03C22.09 34.83 22.39 35.51 22.93 36.01C23.49 36.51 24.25 36.76 25.21 36.76C26.19 36.76 26.96 36.53 27.52 36.07C28.08 35.59 28.36 34.97 28.36 34.21C28.36 33.59 28.17 33.08 27.79 32.68C27.41 32.28 26.93 31.97 26.35 31.75C25.79 31.51 25.01 31.25 24.01 30.97C22.65 30.57 21.54 30.18 20.68 29.8C19.84 29.4 19.11 28.81 18.49 28.03C17.89 27.23 17.59 26.17 17.59 24.85C17.59 23.61 17.9 22.53 18.52 21.61C19.14 20.69 20.01 19.99 21.13 19.51C22.25 19.01 23.53 18.76 24.97 18.76C27.13 18.76 28.88 19.29 30.22 20.35C31.58 21.39 32.33 22.85 32.47 24.73H27.85C27.81 24.01 27.5 23.42 26.92 22.96C26.36 22.48 25.61 22.24 24.67 22.24C23.85 22.24 23.19 22.45 22.69 22.87C22.21 23.29 21.97 23.9 21.97 24.7C21.97 25.26 22.15 25.73 22.51 26.11C22.89 26.47 23.35 26.77 23.89 27.01C24.45 27.23 25.23 27.49 26.23 27.79C27.59 28.19 28.7 28.59 29.56 28.99C30.42 29.39 31.16 29.99 31.78 30.79C32.4 31.59 32.71 32.64 32.71 33.94C32.71 35.06 32.42 36.1 31.84 37.06C31.26 38.02 30.41 38.79 29.29 39.37C28.17 39.93 26.84 40.21 25.3 40.21ZM41.2413 26.83V34.87C41.2413 35.43 41.3713 35.84 41.6313 36.1C41.9113 36.34 42.3713 36.46 43.0113 36.46H44.9613V40H42.3213C38.7813 40 37.0113 38.28 37.0113 34.84V26.83H35.0313V23.38H37.0113V19.27H41.2413V23.38H44.9613V26.83H41.2413ZM55.3621 40.27C53.7621 40.27 52.3221 39.92 51.0421 39.22C49.7621 38.5 48.7521 37.49 48.0121 36.19C47.2921 34.89 46.9321 33.39 46.9321 31.69C46.9321 29.99 47.3021 28.49 48.0421 27.19C48.8021 25.89 49.8321 24.89 51.1321 24.19C52.4321 23.47 53.8821 23.11 55.4821 23.11C57.0821 23.11 58.5321 23.47 59.8321 24.19C61.1321 24.89 62.1521 25.89 62.8921 27.19C63.6521 28.49 64.0321 29.99 64.0321 31.69C64.0321 33.39 63.6421 34.89 62.8621 36.19C62.1021 37.49 61.0621 38.5 59.7421 39.22C58.4421 39.92 56.9821 40.27 55.3621 40.27ZM55.3621 36.61C56.1221 36.61 56.8321 36.43 57.4921 36.07C58.1721 35.69 58.7121 35.13 59.1121 34.39C59.5121 33.65 59.7121 32.75 59.7121 31.69C59.7121 30.11 59.2921 28.9 58.4521 28.06C57.6321 27.2 56.6221 26.77 55.4221 26.77C54.2221 26.77 53.2121 27.2 52.3921 28.06C51.5921 28.9 51.1921 30.11 51.1921 31.69C51.1921 33.27 51.5821 34.49 52.3621 35.35C53.1621 36.19 54.1621 36.61 55.3621 36.61ZM66.033 31.69C66.033 29.97 66.383 28.47 67.083 27.19C67.783 25.89 68.753 24.89 69.993 24.19C71.233 23.47 72.653 23.11 74.253 23.11C76.313 23.11 78.013 23.63 79.353 24.67C80.713 25.69 81.623 27.13 82.083 28.99H77.553C77.313 28.27 76.903 27.71 76.323 27.31C75.763 26.89 75.063 26.68 74.223 26.68C73.023 26.68 72.073 27.12 71.373 28C70.673 28.86 70.323 30.09 70.323 31.69C70.323 33.27 70.673 34.5 71.373 35.38C72.073 36.24 73.023 36.67 74.223 36.67C75.923 36.67 77.033 35.91 77.553 34.39H82.083C81.623 36.19 80.713 37.62 79.353 38.68C77.993 39.74 76.293 40.27 74.253 40.27C72.653 40.27 71.233 39.92 69.993 39.22C68.753 38.5 67.783 37.5 67.083 36.22C66.383 34.92 66.033 33.41 66.033 31.69ZM94.9998 40L89.3598 32.92V40H85.1598V17.8H89.3598V30.43L94.9398 23.38H100.4L93.0798 31.72L100.46 40H94.9998ZM112.039 23.14C113.299 23.14 114.419 23.42 115.399 23.98C116.379 24.52 117.139 25.33 117.679 26.41C118.239 27.47 118.519 28.75 118.519 30.25V40H114.319V30.82C114.319 29.5 113.989 28.49 113.329 27.79C112.669 27.07 111.769 26.71 110.629 26.71C109.469 26.71 108.549 27.07 107.869 27.79C107.209 28.49 106.879 29.5 106.879 30.82V40H102.679V17.8H106.879V25.45C107.419 24.73 108.139 24.17 109.039 23.77C109.939 23.35 110.939 23.14 112.039 23.14ZM129.893 40.27C128.293 40.27 126.853 39.92 125.573 39.22C124.293 38.5 123.283 37.49 122.543 36.19C121.823 34.89 121.463 33.39 121.463 31.69C121.463 29.99 121.833 28.49 122.573 27.19C123.333 25.89 124.363 24.89 125.663 24.19C126.963 23.47 128.413 23.11 130.013 23.11C131.613 23.11 133.063 23.47 134.363 24.19C135.663 24.89 136.683 25.89 137.423 27.19C138.183 28.49 138.563 29.99 138.563 31.69C138.563 33.39 138.173 34.89 137.393 36.19C136.633 37.49 135.593 38.5 134.273 39.22C132.973 39.92 131.513 40.27 129.893 40.27ZM129.893 36.61C130.653 36.61 131.363 36.43 132.023 36.07C132.703 35.69 133.243 35.13 133.643 34.39C134.043 33.65 134.243 32.75 134.243 31.69C134.243 30.11 133.823 28.9 132.983 28.06C132.163 27.2 131.153 26.77 129.953 26.77C128.753 26.77 127.743 27.2 126.923 28.06C126.123 28.9 125.723 30.11 125.723 31.69C125.723 33.27 126.113 34.49 126.893 35.35C127.693 36.19 128.693 36.61 129.893 36.61ZM145.844 17.8V40H141.644V17.8H145.844ZM170.634 23.14C172.674 23.14 174.314 23.77 175.554 25.03C176.814 26.27 177.444 28.01 177.444 30.25V40H173.244V30.82C173.244 29.52 172.914 28.53 172.254 27.85C171.594 27.15 170.694 26.8 169.554 26.8C168.414 26.8 167.504 27.15 166.824 27.85C166.164 28.53 165.834 29.52 165.834 30.82V40H161.634V30.82C161.634 29.52 161.304 28.53 160.644 27.85C159.984 27.15 159.084 26.8 157.944 26.8C156.784 26.8 155.864 27.15 155.184 27.85C154.524 28.53 154.194 29.52 154.194 30.82V40H149.994V23.38H154.194V25.39C154.734 24.69 155.424 24.14 156.264 23.74C157.124 23.34 158.064 23.14 159.084 23.14C160.384 23.14 161.544 23.42 162.564 23.98C163.584 24.52 164.374 25.3 164.934 26.32C165.474 25.36 166.254 24.59 167.274 24.01C168.314 23.43 169.434 23.14 170.634 23.14Z" fill="black"/>
</svg>
